<?xml version="1.0" encoding="UTF-8"?>
<svg id="Layer_1" data-name="Layer 1" xmlns="http://www.w3.org/2000/svg" xmlns:xlink="http://www.w3.org/1999/xlink" viewBox="0 0 283.46 283.46">
  <defs>
    <style>
      .cls-1 {
        fill: url(#linear-gradient-2);
      }

      .cls-2 {
        fill: #408ccb;
      }

      .cls-3 {
        fill: #654299;
      }

      .cls-4 {
        fill: #81cece;
      }

      .cls-5 {
        fill: url(#linear-gradient);
      }
    </style>
    <linearGradient id="linear-gradient" x1="33.17" y1="141.73" x2="249.54" y2="141.73" gradientUnits="userSpaceOnUse">
      <stop offset="0" stop-color="#81cece"/>
      <stop offset=".54" stop-color="#408ccb"/>
      <stop offset="1" stop-color="#654299"/>
    </linearGradient>
    <linearGradient id="linear-gradient-2" x1="33.62" y1="141.73" x2="249.09" y2="141.73" xlink:href="#linear-gradient"/>
  </defs>
  <polygon class="cls-5" points="67.25 223.85 67.24 204.06 69.43 204.06 69.43 222.59 113.3 247.92 113.3 208.06 127.63 198.76 128.82 200.6 115.49 209.24 115.49 249.18 126.75 255.69 126.75 224.43 128.94 224.43 128.94 256.95 140.26 263.49 140.26 142.36 117.17 129.03 117.17 149.66 114.98 149.66 114.98 127.76 103.72 121.26 103.72 171.52 101.53 171.52 101.53 120 35.37 81.8 35.37 121.09 65.02 137.47 65.02 155.66 81.97 165.01 80.91 166.93 62.84 156.94 62.84 138.75 35.37 123.59 35.37 170.58 59.56 185.2 72.48 178.34 73.5 180.27 59.49 187.71 33.18 171.81 33.17 79.28 141.35 16.82 175.16 36.09 174.07 37.99 141.36 19.34 109.52 37.73 142.45 56.44 142.45 72.48 140.26 72.48 140.26 57.72 107.32 38.99 36.46 79.91 49.05 87.17 72.44 73.81 73.53 75.71 51.24 88.44 68.23 98.25 112.62 72.47 113.72 74.36 70.41 99.5 104.29 119.06 141.35 96.88 158.13 106.58 157.04 108.48 141.37 99.41 106.45 120.31 141.36 140.47 212.25 99.54 175.26 78.58 175.26 61.07 177.44 61.07 177.44 77.3 214.45 98.27 225.41 91.94 208.71 81.15 209.9 79.32 227.53 90.71 249.54 78.01 249.54 119.7 236.63 127.94 235.45 126.1 247.35 118.5 247.35 81.8 204.44 106.57 204.44 124.59 202.25 124.59 202.25 107.83 177.44 122.16 177.44 162.38 159.04 173.47 157.92 171.6 175.26 161.15 175.26 123.42 142.45 142.36 142.45 263.49 172.3 246.25 172.3 211.39 174.49 211.39 174.49 244.99 186.52 238.05 186.52 180.15 163.29 194.15 162.16 192.28 188.7 176.28 188.7 236.78 195.95 232.6 195.95 184.64 213.21 174.01 213.21 155.85 215.4 155.85 215.4 175.23 198.14 185.86 198.14 231.34 220.4 218.48 220.4 200.96 222.59 200.96 222.59 217.22 232.78 211.34 232.78 170.56 248.29 161.75 249.37 163.65 234.97 171.83 234.97 212.6 141.36 266.64 67.25 223.85"/>
  <polygon class="cls-1" points="236.07 126.24 236.77 127.32 249.09 119.45 249.09 78.79 227.52 91.24 210.03 79.94 209.33 81.02 226.26 91.96 214.45 98.79 177 77.56 177 61.51 175.71 61.51 175.71 78.32 213.15 99.53 141.36 140.99 105.57 120.32 141.36 98.9 156.88 107.86 157.52 106.75 141.35 97.4 104.29 119.58 69.52 99.51 113.11 74.2 112.46 73.08 68.23 98.76 50.34 88.43 72.92 75.55 72.28 74.43 49.04 87.69 35.57 79.9 107.32 38.48 140.71 57.46 140.71 72.03 142 72.03 142 56.71 108.62 37.73 141.36 18.82 173.91 37.38 174.55 36.26 141.68 17.52 141.36 17.34 33.62 79.54 33.63 171.56 59.5 187.2 72.9 180.09 72.3 178.95 59.55 185.72 34.92 170.83 34.92 122.83 63.28 138.49 63.28 156.68 80.74 166.32 81.36 165.19 64.57 155.92 64.57 137.73 34.92 121.35 34.92 81.02 101.98 119.74 101.98 171.07 103.27 171.07 103.27 120.48 115.43 127.5 115.43 149.21 116.72 149.21 116.72 128.25 140.71 142.1 140.71 264.26 128.49 257.21 128.49 224.87 127.2 224.87 127.2 256.46 115.04 249.44 115.04 209 128.2 200.47 127.49 199.38 113.75 208.3 113.75 248.7 68.98 222.85 68.98 204.5 67.69 204.5 67.69 223.29 67.69 223.59 68.01 223.78 141.36 266.13 234.2 212.53 234.52 212.34 234.52 171.57 248.76 163.48 248.12 162.36 233.23 170.82 233.23 211.59 222.14 218 222.14 201.4 220.85 201.4 220.85 218.76 221.68 218.26 197.69 232.11 197.69 185.61 214.95 174.98 214.95 156.3 213.66 156.3 213.66 174.26 196.4 184.89 196.4 232.86 188.26 237.56 188.26 177.07 162.77 192.43 163.44 193.53 186.96 179.35 186.96 238.3 174.04 245.77 174.04 211.84 172.75 211.84 172.75 246.51 142 264.26 142 142.1 175.71 122.64 175.71 161.4 158.53 171.75 159.2 172.85 177 162.13 177 121.9 202.7 107.06 202.7 124.15 203.99 124.15 203.99 106.31 247.8 81.02 247.8 118.75 236.07 126.24"/>
  <circle class="cls-2" cx="111.23" cy="74.3" r="2.95"/>
  <circle class="cls-2" cx="141.36" cy="72.03" r="2.95"/>
  <circle class="cls-2" cx="176.35" cy="62.03" r="2.95"/>
  <circle class="cls-2" cx="174.67" cy="37.01" r="2.95"/>
  <circle class="cls-3" cx="210.6" cy="80.71" r="2.95"/>
  <circle class="cls-2" cx="157.32" cy="107.3" r="2.95"/>
  <circle class="cls-4" cx="72.6" cy="74.99" r="2.95"/>
  <circle class="cls-2" cx="102.63" cy="171.07" r="2.95"/>
  <circle class="cls-2" cx="127.84" cy="199.93" r="2.95"/>
  <circle class="cls-2" cx="116.08" cy="149.21" r="2.95"/>
  <circle class="cls-4" cx="81.05" cy="165.75" r="2.95"/>
  <circle class="cls-4" cx="71.29" cy="180.42" r="2.95"/>
  <circle class="cls-2" cx="173.4" cy="211.84" r="2.95"/>
  <circle class="cls-4" cx="68.33" cy="204.5" r="2.95"/>
  <circle class="cls-3" cx="221.49" cy="201.4" r="2.95"/>
  <circle class="cls-2" cx="127.84" cy="225.19" r="2.95"/>
  <circle class="cls-3" cx="214.31" cy="154.7" r="2.95"/>
  <circle class="cls-3" cx="203.34" cy="123.71" r="2.95"/>
  <circle class="cls-3" cx="237.08" cy="125.76" r="2.95"/>
  <circle class="cls-3" cx="247.34" cy="163.55" r="2.95"/>
  <circle class="cls-2" cx="160.15" cy="171.07" r="2.95"/>
  <circle class="cls-2" cx="163.11" cy="192.78" r="2.95"/>
</svg>
